<mxfile host="app.diagrams.net" modified="2023-12-12T14:58:54.440Z" agent="Mozilla/5.0 (Windows NT 10.0; Win64; x64) AppleWebKit/537.36 (KHTML, like Gecko) Chrome/120.0.0.0 Safari/537.36" etag="x4RUQDHdlPrO9utq84NK" version="22.1.7" type="device">
  <diagram id="C5RBs43oDa-KdzZeNtuy" name="Page-1">
    <mxGraphModel dx="1916" dy="891" grid="1" gridSize="10" guides="1" tooltips="1" connect="1" arrows="1" fold="1" page="1" pageScale="1" pageWidth="827" pageHeight="1169" math="0" shadow="0">
      <root>
        <mxCell id="WIyWlLk6GJQsqaUBKTNV-0" />
        <mxCell id="WIyWlLk6GJQsqaUBKTNV-1" parent="WIyWlLk6GJQsqaUBKTNV-0" />
        <mxCell id="NNj73pJ5o8QrJ1JKOemf-13" style="edgeStyle=orthogonalEdgeStyle;rounded=0;orthogonalLoop=1;jettySize=auto;html=1;exitX=0;exitY=0.5;exitDx=0;exitDy=0;entryX=0.5;entryY=0;entryDx=0;entryDy=0;" parent="WIyWlLk6GJQsqaUBKTNV-1" source="WIyWlLk6GJQsqaUBKTNV-6" target="NNj73pJ5o8QrJ1JKOemf-3" edge="1">
          <mxGeometry relative="1" as="geometry" />
        </mxCell>
        <mxCell id="8p3cYtd0K04irs5CblF0-1" value="0.2" style="edgeLabel;html=1;align=center;verticalAlign=middle;resizable=0;points=[];" vertex="1" connectable="0" parent="NNj73pJ5o8QrJ1JKOemf-13">
          <mxGeometry x="-0.3106" y="-1" relative="1" as="geometry">
            <mxPoint x="61" y="-9" as="offset" />
          </mxGeometry>
        </mxCell>
        <mxCell id="NNj73pJ5o8QrJ1JKOemf-14" style="edgeStyle=orthogonalEdgeStyle;rounded=0;orthogonalLoop=1;jettySize=auto;html=1;exitX=1;exitY=0.5;exitDx=0;exitDy=0;entryX=0.5;entryY=0;entryDx=0;entryDy=0;" parent="WIyWlLk6GJQsqaUBKTNV-1" source="WIyWlLk6GJQsqaUBKTNV-6" target="NNj73pJ5o8QrJ1JKOemf-1" edge="1">
          <mxGeometry relative="1" as="geometry" />
        </mxCell>
        <mxCell id="8p3cYtd0K04irs5CblF0-0" value="0.8" style="edgeLabel;html=1;align=center;verticalAlign=middle;resizable=0;points=[];" vertex="1" connectable="0" parent="NNj73pJ5o8QrJ1JKOemf-14">
          <mxGeometry x="-0.4222" y="3" relative="1" as="geometry">
            <mxPoint x="-80" y="-7" as="offset" />
          </mxGeometry>
        </mxCell>
        <mxCell id="WIyWlLk6GJQsqaUBKTNV-6" value="Марка автомобиля иностранная?" style="rhombus;whiteSpace=wrap;html=1;shadow=0;fontFamily=Helvetica;fontSize=12;align=center;strokeWidth=1;spacing=6;spacingTop=-4;" parent="WIyWlLk6GJQsqaUBKTNV-1" vertex="1">
          <mxGeometry x="360" y="20" width="180" height="100" as="geometry" />
        </mxCell>
        <mxCell id="NNj73pJ5o8QrJ1JKOemf-18" style="edgeStyle=orthogonalEdgeStyle;rounded=0;orthogonalLoop=1;jettySize=auto;html=1;exitX=1;exitY=0.5;exitDx=0;exitDy=0;" parent="WIyWlLk6GJQsqaUBKTNV-1" source="8p3cYtd0K04irs5CblF0-10" target="NNj73pJ5o8QrJ1JKOemf-7" edge="1">
          <mxGeometry relative="1" as="geometry">
            <mxPoint x="1050" y="272.5" as="sourcePoint" />
          </mxGeometry>
        </mxCell>
        <mxCell id="8p3cYtd0K04irs5CblF0-17" value="0.05" style="edgeLabel;html=1;align=center;verticalAlign=middle;resizable=0;points=[];" vertex="1" connectable="0" parent="NNj73pJ5o8QrJ1JKOemf-18">
          <mxGeometry x="0.2464" y="3" relative="1" as="geometry">
            <mxPoint x="-13" y="-105" as="offset" />
          </mxGeometry>
        </mxCell>
        <mxCell id="NNj73pJ5o8QrJ1JKOemf-19" style="edgeStyle=orthogonalEdgeStyle;rounded=0;orthogonalLoop=1;jettySize=auto;html=1;exitX=0;exitY=0.5;exitDx=0;exitDy=0;entryX=0.5;entryY=0;entryDx=0;entryDy=0;" parent="WIyWlLk6GJQsqaUBKTNV-1" source="8p3cYtd0K04irs5CblF0-10" target="NNj73pJ5o8QrJ1JKOemf-10" edge="1">
          <mxGeometry relative="1" as="geometry">
            <mxPoint x="920" y="445" as="targetPoint" />
            <mxPoint x="860" y="272.5" as="sourcePoint" />
          </mxGeometry>
        </mxCell>
        <mxCell id="8p3cYtd0K04irs5CblF0-18" value="0.95" style="edgeLabel;html=1;align=center;verticalAlign=middle;resizable=0;points=[];" vertex="1" connectable="0" parent="NNj73pJ5o8QrJ1JKOemf-19">
          <mxGeometry x="0.1652" y="4" relative="1" as="geometry">
            <mxPoint y="-98" as="offset" />
          </mxGeometry>
        </mxCell>
        <mxCell id="NNj73pJ5o8QrJ1JKOemf-15" style="edgeStyle=orthogonalEdgeStyle;rounded=0;orthogonalLoop=1;jettySize=auto;html=1;exitX=1;exitY=0.5;exitDx=0;exitDy=0;entryX=0.5;entryY=0;entryDx=0;entryDy=0;" parent="WIyWlLk6GJQsqaUBKTNV-1" source="NNj73pJ5o8QrJ1JKOemf-1" target="8p3cYtd0K04irs5CblF0-10" edge="1">
          <mxGeometry relative="1" as="geometry" />
        </mxCell>
        <mxCell id="8p3cYtd0K04irs5CblF0-15" value="0.1" style="edgeLabel;html=1;align=center;verticalAlign=middle;resizable=0;points=[];" vertex="1" connectable="0" parent="NNj73pJ5o8QrJ1JKOemf-15">
          <mxGeometry x="-0.4675" y="-5" relative="1" as="geometry">
            <mxPoint x="-37" y="-25" as="offset" />
          </mxGeometry>
        </mxCell>
        <mxCell id="NNj73pJ5o8QrJ1JKOemf-26" style="edgeStyle=orthogonalEdgeStyle;rounded=0;orthogonalLoop=1;jettySize=auto;html=1;exitX=0;exitY=0.5;exitDx=0;exitDy=0;entryX=0.5;entryY=0;entryDx=0;entryDy=0;" parent="WIyWlLk6GJQsqaUBKTNV-1" source="NNj73pJ5o8QrJ1JKOemf-1" target="NNj73pJ5o8QrJ1JKOemf-28" edge="1">
          <mxGeometry relative="1" as="geometry">
            <mxPoint x="631.5" y="237.4999999999999" as="targetPoint" />
          </mxGeometry>
        </mxCell>
        <mxCell id="8p3cYtd0K04irs5CblF0-16" value="0.9" style="edgeLabel;html=1;align=center;verticalAlign=middle;resizable=0;points=[];" vertex="1" connectable="0" parent="NNj73pJ5o8QrJ1JKOemf-26">
          <mxGeometry x="-0.1637" y="-3" relative="1" as="geometry">
            <mxPoint x="45" y="-17" as="offset" />
          </mxGeometry>
        </mxCell>
        <mxCell id="NNj73pJ5o8QrJ1JKOemf-1" value="Марка изветсна электрокарами?" style="rhombus;whiteSpace=wrap;html=1;" parent="WIyWlLk6GJQsqaUBKTNV-1" vertex="1">
          <mxGeometry x="710" y="140" width="143" height="80" as="geometry" />
        </mxCell>
        <mxCell id="NNj73pJ5o8QrJ1JKOemf-16" style="edgeStyle=orthogonalEdgeStyle;rounded=0;orthogonalLoop=1;jettySize=auto;html=1;exitX=1;exitY=0.5;exitDx=0;exitDy=0;entryX=0.75;entryY=0;entryDx=0;entryDy=0;" parent="WIyWlLk6GJQsqaUBKTNV-1" source="NNj73pJ5o8QrJ1JKOemf-2" target="NNj73pJ5o8QrJ1JKOemf-9" edge="1">
          <mxGeometry relative="1" as="geometry" />
        </mxCell>
        <mxCell id="8p3cYtd0K04irs5CblF0-13" value="0.1" style="edgeLabel;html=1;align=center;verticalAlign=middle;resizable=0;points=[];" vertex="1" connectable="0" parent="NNj73pJ5o8QrJ1JKOemf-16">
          <mxGeometry x="0.2269" y="1" relative="1" as="geometry">
            <mxPoint x="-11" y="-101" as="offset" />
          </mxGeometry>
        </mxCell>
        <mxCell id="NNj73pJ5o8QrJ1JKOemf-17" style="edgeStyle=orthogonalEdgeStyle;rounded=0;orthogonalLoop=1;jettySize=auto;html=1;exitX=0;exitY=0.5;exitDx=0;exitDy=0;entryX=0.25;entryY=0;entryDx=0;entryDy=0;" parent="WIyWlLk6GJQsqaUBKTNV-1" source="NNj73pJ5o8QrJ1JKOemf-2" target="NNj73pJ5o8QrJ1JKOemf-5" edge="1">
          <mxGeometry relative="1" as="geometry" />
        </mxCell>
        <mxCell id="8p3cYtd0K04irs5CblF0-14" value="0.9" style="edgeLabel;html=1;align=center;verticalAlign=middle;resizable=0;points=[];" vertex="1" connectable="0" parent="NNj73pJ5o8QrJ1JKOemf-17">
          <mxGeometry x="0.1728" y="-1" relative="1" as="geometry">
            <mxPoint x="11" y="-97" as="offset" />
          </mxGeometry>
        </mxCell>
        <mxCell id="NNj73pJ5o8QrJ1JKOemf-2" value="Автомобили Вашей марки&lt;br&gt;учавствуют в ралли Дакар?" style="rhombus;whiteSpace=wrap;html=1;" parent="WIyWlLk6GJQsqaUBKTNV-1" vertex="1">
          <mxGeometry x="274" y="228.75" width="140" height="137.5" as="geometry" />
        </mxCell>
        <mxCell id="NNj73pJ5o8QrJ1JKOemf-11" style="edgeStyle=orthogonalEdgeStyle;rounded=0;orthogonalLoop=1;jettySize=auto;html=1;exitX=0;exitY=0.5;exitDx=0;exitDy=0;entryX=0.5;entryY=0;entryDx=0;entryDy=0;" parent="WIyWlLk6GJQsqaUBKTNV-1" source="NNj73pJ5o8QrJ1JKOemf-3" target="NNj73pJ5o8QrJ1JKOemf-27" edge="1">
          <mxGeometry relative="1" as="geometry">
            <mxPoint x="24" y="220" as="targetPoint" />
          </mxGeometry>
        </mxCell>
        <mxCell id="8p3cYtd0K04irs5CblF0-3" value="0.7" style="edgeLabel;html=1;align=center;verticalAlign=middle;resizable=0;points=[];" vertex="1" connectable="0" parent="NNj73pJ5o8QrJ1JKOemf-11">
          <mxGeometry x="-0.287" y="-3" relative="1" as="geometry">
            <mxPoint x="18" y="-26" as="offset" />
          </mxGeometry>
        </mxCell>
        <mxCell id="NNj73pJ5o8QrJ1JKOemf-12" style="edgeStyle=orthogonalEdgeStyle;rounded=0;orthogonalLoop=1;jettySize=auto;html=1;exitX=1;exitY=0.5;exitDx=0;exitDy=0;entryX=0.5;entryY=0;entryDx=0;entryDy=0;" parent="WIyWlLk6GJQsqaUBKTNV-1" source="NNj73pJ5o8QrJ1JKOemf-3" target="NNj73pJ5o8QrJ1JKOemf-2" edge="1">
          <mxGeometry relative="1" as="geometry" />
        </mxCell>
        <mxCell id="8p3cYtd0K04irs5CblF0-2" value="0.3" style="edgeLabel;html=1;align=center;verticalAlign=middle;resizable=0;points=[];" vertex="1" connectable="0" parent="NNj73pJ5o8QrJ1JKOemf-12">
          <mxGeometry x="-0.5253" y="-3" relative="1" as="geometry">
            <mxPoint x="-21" y="-13" as="offset" />
          </mxGeometry>
        </mxCell>
        <mxCell id="NNj73pJ5o8QrJ1JKOemf-3" value="Марка специализируется на грузовиках" style="rhombus;whiteSpace=wrap;html=1;" parent="WIyWlLk6GJQsqaUBKTNV-1" vertex="1">
          <mxGeometry x="110" y="120" width="130" height="80" as="geometry" />
        </mxCell>
        <mxCell id="NNj73pJ5o8QrJ1JKOemf-5" value="ЗИЛ" style="rounded=0;whiteSpace=wrap;html=1;" parent="WIyWlLk6GJQsqaUBKTNV-1" vertex="1">
          <mxGeometry x="220" y="450" width="120" height="60" as="geometry" />
        </mxCell>
        <mxCell id="NNj73pJ5o8QrJ1JKOemf-7" value="Tesla" style="rounded=0;whiteSpace=wrap;html=1;" parent="WIyWlLk6GJQsqaUBKTNV-1" vertex="1">
          <mxGeometry x="1010" y="450" width="120" height="60" as="geometry" />
        </mxCell>
        <mxCell id="NNj73pJ5o8QrJ1JKOemf-9" value="КаМаз" style="rounded=0;whiteSpace=wrap;html=1;" parent="WIyWlLk6GJQsqaUBKTNV-1" vertex="1">
          <mxGeometry x="350" y="450" width="120" height="60" as="geometry" />
        </mxCell>
        <mxCell id="NNj73pJ5o8QrJ1JKOemf-10" value="Li Auto" style="rounded=0;whiteSpace=wrap;html=1;" parent="WIyWlLk6GJQsqaUBKTNV-1" vertex="1">
          <mxGeometry x="780" y="450" width="120" height="60" as="geometry" />
        </mxCell>
        <mxCell id="NNj73pJ5o8QrJ1JKOemf-35" style="edgeStyle=orthogonalEdgeStyle;rounded=0;orthogonalLoop=1;jettySize=auto;html=1;exitX=1;exitY=0.5;exitDx=0;exitDy=0;entryX=0.75;entryY=0;entryDx=0;entryDy=0;" parent="WIyWlLk6GJQsqaUBKTNV-1" source="NNj73pJ5o8QrJ1JKOemf-27" target="NNj73pJ5o8QrJ1JKOemf-36" edge="1">
          <mxGeometry relative="1" as="geometry">
            <mxPoint x="80" y="460" as="targetPoint" />
          </mxGeometry>
        </mxCell>
        <mxCell id="8p3cYtd0K04irs5CblF0-5" value="0.5" style="edgeLabel;html=1;align=center;verticalAlign=middle;resizable=0;points=[];" vertex="1" connectable="0" parent="NNj73pJ5o8QrJ1JKOemf-35">
          <mxGeometry x="0.0725" relative="1" as="geometry">
            <mxPoint x="-5" y="-90" as="offset" />
          </mxGeometry>
        </mxCell>
        <mxCell id="NNj73pJ5o8QrJ1JKOemf-38" style="edgeStyle=orthogonalEdgeStyle;rounded=0;orthogonalLoop=1;jettySize=auto;html=1;exitX=0;exitY=0.5;exitDx=0;exitDy=0;entryX=0.5;entryY=0;entryDx=0;entryDy=0;" parent="WIyWlLk6GJQsqaUBKTNV-1" source="NNj73pJ5o8QrJ1JKOemf-27" target="8p3cYtd0K04irs5CblF0-6" edge="1">
          <mxGeometry relative="1" as="geometry" />
        </mxCell>
        <mxCell id="8p3cYtd0K04irs5CblF0-4" value="0.5" style="edgeLabel;html=1;align=center;verticalAlign=middle;resizable=0;points=[];" vertex="1" connectable="0" parent="NNj73pJ5o8QrJ1JKOemf-38">
          <mxGeometry x="-0.0435" y="4" relative="1" as="geometry">
            <mxPoint x="53" y="-22" as="offset" />
          </mxGeometry>
        </mxCell>
        <mxCell id="NNj73pJ5o8QrJ1JKOemf-27" value="Марка известна внедорожниками?" style="rhombus;whiteSpace=wrap;html=1;" parent="WIyWlLk6GJQsqaUBKTNV-1" vertex="1">
          <mxGeometry x="10" y="250" width="150" height="95" as="geometry" />
        </mxCell>
        <mxCell id="NNj73pJ5o8QrJ1JKOemf-31" style="edgeStyle=orthogonalEdgeStyle;rounded=0;orthogonalLoop=1;jettySize=auto;html=1;exitX=1;exitY=0.5;exitDx=0;exitDy=0;entryX=0.5;entryY=0;entryDx=0;entryDy=0;" parent="WIyWlLk6GJQsqaUBKTNV-1" source="NNj73pJ5o8QrJ1JKOemf-28" target="NNj73pJ5o8QrJ1JKOemf-29" edge="1">
          <mxGeometry relative="1" as="geometry" />
        </mxCell>
        <mxCell id="8p3cYtd0K04irs5CblF0-19" value="0.2" style="edgeLabel;html=1;align=center;verticalAlign=middle;resizable=0;points=[];" vertex="1" connectable="0" parent="NNj73pJ5o8QrJ1JKOemf-31">
          <mxGeometry x="0.2068" y="-3" relative="1" as="geometry">
            <mxPoint x="-7" y="-111" as="offset" />
          </mxGeometry>
        </mxCell>
        <mxCell id="NNj73pJ5o8QrJ1JKOemf-32" style="edgeStyle=orthogonalEdgeStyle;rounded=0;orthogonalLoop=1;jettySize=auto;html=1;exitX=0;exitY=0.5;exitDx=0;exitDy=0;entryX=0.5;entryY=0;entryDx=0;entryDy=0;" parent="WIyWlLk6GJQsqaUBKTNV-1" source="NNj73pJ5o8QrJ1JKOemf-28" target="NNj73pJ5o8QrJ1JKOemf-30" edge="1">
          <mxGeometry relative="1" as="geometry" />
        </mxCell>
        <mxCell id="8p3cYtd0K04irs5CblF0-20" value="0.8" style="edgeLabel;html=1;align=center;verticalAlign=middle;resizable=0;points=[];" vertex="1" connectable="0" parent="NNj73pJ5o8QrJ1JKOemf-32">
          <mxGeometry x="0.2068" y="-1" relative="1" as="geometry">
            <mxPoint x="1" y="-111" as="offset" />
          </mxGeometry>
        </mxCell>
        <mxCell id="NNj73pJ5o8QrJ1JKOemf-28" value="Марка машины представленна в Формуле1?" style="rhombus;whiteSpace=wrap;html=1;" parent="WIyWlLk6GJQsqaUBKTNV-1" vertex="1">
          <mxGeometry x="560" y="221.53" width="120" height="98.47" as="geometry" />
        </mxCell>
        <mxCell id="NNj73pJ5o8QrJ1JKOemf-29" value="Mercedes-Benz" style="rounded=0;whiteSpace=wrap;html=1;" parent="WIyWlLk6GJQsqaUBKTNV-1" vertex="1">
          <mxGeometry x="640" y="450" width="120" height="60" as="geometry" />
        </mxCell>
        <mxCell id="NNj73pJ5o8QrJ1JKOemf-30" value="Toyota" style="rounded=0;whiteSpace=wrap;html=1;" parent="WIyWlLk6GJQsqaUBKTNV-1" vertex="1">
          <mxGeometry x="480" y="450" width="120" height="60" as="geometry" />
        </mxCell>
        <mxCell id="NNj73pJ5o8QrJ1JKOemf-36" value="УАЗ" style="rounded=0;whiteSpace=wrap;html=1;" parent="WIyWlLk6GJQsqaUBKTNV-1" vertex="1">
          <mxGeometry x="90" y="450" width="120" height="60" as="geometry" />
        </mxCell>
        <mxCell id="NNj73pJ5o8QrJ1JKOemf-37" value="Lada" style="rounded=0;whiteSpace=wrap;html=1;" parent="WIyWlLk6GJQsqaUBKTNV-1" vertex="1">
          <mxGeometry x="-40" y="450" width="120" height="60" as="geometry" />
        </mxCell>
        <mxCell id="8p3cYtd0K04irs5CblF0-8" style="edgeStyle=orthogonalEdgeStyle;rounded=0;orthogonalLoop=1;jettySize=auto;html=1;exitX=1;exitY=0.5;exitDx=0;exitDy=0;entryX=0.5;entryY=0;entryDx=0;entryDy=0;" edge="1" parent="WIyWlLk6GJQsqaUBKTNV-1" source="8p3cYtd0K04irs5CblF0-6" target="NNj73pJ5o8QrJ1JKOemf-37">
          <mxGeometry relative="1" as="geometry" />
        </mxCell>
        <mxCell id="8p3cYtd0K04irs5CblF0-11" value="0.9" style="edgeLabel;html=1;align=center;verticalAlign=middle;resizable=0;points=[];" vertex="1" connectable="0" parent="8p3cYtd0K04irs5CblF0-8">
          <mxGeometry x="-0.0051" y="-2" relative="1" as="geometry">
            <mxPoint x="-18" y="-35" as="offset" />
          </mxGeometry>
        </mxCell>
        <mxCell id="8p3cYtd0K04irs5CblF0-9" style="edgeStyle=orthogonalEdgeStyle;rounded=0;orthogonalLoop=1;jettySize=auto;html=1;exitX=0;exitY=0.5;exitDx=0;exitDy=0;entryX=0.5;entryY=0;entryDx=0;entryDy=0;" edge="1" parent="WIyWlLk6GJQsqaUBKTNV-1" source="8p3cYtd0K04irs5CblF0-6" target="8p3cYtd0K04irs5CblF0-7">
          <mxGeometry relative="1" as="geometry" />
        </mxCell>
        <mxCell id="8p3cYtd0K04irs5CblF0-12" value="0.1" style="edgeLabel;html=1;align=center;verticalAlign=middle;resizable=0;points=[];" vertex="1" connectable="0" parent="8p3cYtd0K04irs5CblF0-9">
          <mxGeometry x="0.0857" y="4" relative="1" as="geometry">
            <mxPoint y="-44" as="offset" />
          </mxGeometry>
        </mxCell>
        <mxCell id="8p3cYtd0K04irs5CblF0-6" value="Марка известна внедорожниками?" style="rhombus;whiteSpace=wrap;html=1;" vertex="1" parent="WIyWlLk6GJQsqaUBKTNV-1">
          <mxGeometry x="-160" y="335" width="150" height="95" as="geometry" />
        </mxCell>
        <mxCell id="8p3cYtd0K04irs5CblF0-7" value="Москвич" style="rounded=0;whiteSpace=wrap;html=1;" vertex="1" parent="WIyWlLk6GJQsqaUBKTNV-1">
          <mxGeometry x="-240" y="450" width="120" height="60" as="geometry" />
        </mxCell>
        <mxCell id="8p3cYtd0K04irs5CblF0-10" value="&lt;div style=&quot;border-color: var(--border-color);&quot;&gt;Компания владелец марки известна&lt;/div&gt;&lt;div style=&quot;border-color: var(--border-color);&quot;&gt;&lt;span style=&quot;border-color: var(--border-color); background-color: initial;&quot;&gt;так же космическими технологиями?&lt;/span&gt;&lt;/div&gt;" style="rhombus;whiteSpace=wrap;html=1;" vertex="1" parent="WIyWlLk6GJQsqaUBKTNV-1">
          <mxGeometry x="860" y="243.26" width="190" height="108.47" as="geometry" />
        </mxCell>
        <mxCell id="8p3cYtd0K04irs5CblF0-21" value="P=0.004" style="text;html=1;align=center;verticalAlign=middle;resizable=0;points=[];autosize=1;strokeColor=none;fillColor=none;" vertex="1" parent="WIyWlLk6GJQsqaUBKTNV-1">
          <mxGeometry x="1035" y="528" width="70" height="30" as="geometry" />
        </mxCell>
        <mxCell id="8p3cYtd0K04irs5CblF0-22" value="P=0.076" style="text;html=1;align=center;verticalAlign=middle;resizable=0;points=[];autosize=1;strokeColor=none;fillColor=none;" vertex="1" parent="WIyWlLk6GJQsqaUBKTNV-1">
          <mxGeometry x="800" y="528" width="70" height="30" as="geometry" />
        </mxCell>
        <mxCell id="8p3cYtd0K04irs5CblF0-23" value="P=0.144" style="text;html=1;align=center;verticalAlign=middle;resizable=0;points=[];autosize=1;strokeColor=none;fillColor=none;" vertex="1" parent="WIyWlLk6GJQsqaUBKTNV-1">
          <mxGeometry x="670" y="528" width="70" height="30" as="geometry" />
        </mxCell>
        <mxCell id="8p3cYtd0K04irs5CblF0-24" value="0.576" style="text;html=1;align=center;verticalAlign=middle;resizable=0;points=[];autosize=1;strokeColor=none;fillColor=none;" vertex="1" parent="WIyWlLk6GJQsqaUBKTNV-1">
          <mxGeometry x="515" y="528" width="50" height="30" as="geometry" />
        </mxCell>
        <mxCell id="8p3cYtd0K04irs5CblF0-25" value="0.006" style="text;html=1;align=center;verticalAlign=middle;resizable=0;points=[];autosize=1;strokeColor=none;fillColor=none;" vertex="1" parent="WIyWlLk6GJQsqaUBKTNV-1">
          <mxGeometry x="388.5" y="528" width="50" height="30" as="geometry" />
        </mxCell>
        <mxCell id="8p3cYtd0K04irs5CblF0-26" value="0,054" style="text;html=1;align=center;verticalAlign=middle;resizable=0;points=[];autosize=1;strokeColor=none;fillColor=none;" vertex="1" parent="WIyWlLk6GJQsqaUBKTNV-1">
          <mxGeometry x="260" y="528" width="50" height="30" as="geometry" />
        </mxCell>
        <mxCell id="8p3cYtd0K04irs5CblF0-27" value="P=0.070" style="text;html=1;align=center;verticalAlign=middle;resizable=0;points=[];autosize=1;strokeColor=none;fillColor=none;" vertex="1" parent="WIyWlLk6GJQsqaUBKTNV-1">
          <mxGeometry x="115" y="528" width="70" height="30" as="geometry" />
        </mxCell>
        <mxCell id="8p3cYtd0K04irs5CblF0-28" value="P=0.063" style="text;html=1;align=center;verticalAlign=middle;resizable=0;points=[];autosize=1;strokeColor=none;fillColor=none;" vertex="1" parent="WIyWlLk6GJQsqaUBKTNV-1">
          <mxGeometry x="-15" y="528" width="70" height="30" as="geometry" />
        </mxCell>
        <mxCell id="8p3cYtd0K04irs5CblF0-29" value="P=0.007" style="text;html=1;align=center;verticalAlign=middle;resizable=0;points=[];autosize=1;strokeColor=none;fillColor=none;" vertex="1" parent="WIyWlLk6GJQsqaUBKTNV-1">
          <mxGeometry x="-215" y="528" width="70" height="30" as="geometry" />
        </mxCell>
      </root>
    </mxGraphModel>
  </diagram>
</mxfile>
